<svg id="Layer_1" data-name="Layer 1" xmlns="http://www.w3.org/2000/svg" viewBox="0 0 1281 332"><title>science_TITLE</title><polygon points="0.5 0.5 1280.5 0.5 1280.5 112.5 1239.5 112.5 1239.5 160.5 1151.5 160.5 1150.5 202.5 1199.5 202.5 1198.5 244.5 1151.5 244.5 1151.5 284.5 1245.5 284.5 1245.5 331.5 1107.5 331.5 1105.5 115.5 1046.5 114.5 1046.5 160.5 982.5 160.5 980.5 286.5 1043.5 288.5 1033.5 331.5 944.5 331.5 932.5 114.5 907.5 115.5 918.5 331.5 860.5 331.5 828.5 226.5 821.5 331.5 747.5 331.5 766.5 99.5 696.5 101.5 705.5 156.5 626.5 158.5 629.5 197.5 683.5 203.5 684.5 254.5 640.5 251.5 640.5 296.5 694.5 295.5 692.5 331.5 594.5 331.5 578.5 104.5 503.5 111.5 501.5 331.5 446.5 331.5 444.5 105.5 382.5 104.5 384.5 166.5 294.5 166.5 297.5 287.5 379.5 285.5 368.5 331.5 248.5 331.5 242.5 97.5 192.5 100.5 194.5 151.5 102.5 149.5 118.5 212.5 199.5 204.5 201.5 331.5 33.5 331.5 37.5 276.5 151.5 277.5 142.5 250.5 59.5 254.5 53.5 95.5 0.5 105.5 0.5 0.5" style="fill:#fff;stroke:#000;stroke-miterlimit:10"/><polygon points="821.5 103.5 856.5 177.5 861.5 103.5 821.5 103.5" style="fill:#fff;stroke:#000;stroke-miterlimit:10"/></svg>